<svg version="1.1" xmlns="http://www.w3.org/2000/svg" xmlns:xlink="http://www.w3.org/1999/xlink" x="0px" y="0px"
	 viewBox="0 0 552 252" style="enable-background:new 0 0 552 252;" xml:space="preserve">
<style type="text/css">
	.st0{fill:none;stroke:#000000;stroke-width:2;stroke-linecap:round;stroke-linejoin:round;stroke-miterlimit:10;}
	.st1{fill:#CCCCCC;}

</style>
<g id="Layer_1">
	<g id="XMLID_2_">
		<g id="XMLID_9_">
			<path id="XMLID_45_" class="st0" d="M216.9,220.7c24.8,0,49.5,0.1,74.3,0c18.3-0.1,36.5-0.5,54.8-0.7c2.2,0,4.5,0.4,6.8,0.7
				c33.6,4.8,67.1,4.8,100.6-0.6c9.4-1.5,19-1.9,28.5-2.3c15.9-0.7,23.8-6.6,25.3-22.6c1.6-17.9,1.4-36,1.7-54
				c0.4-18.8,1.1-37.6,0.6-56.3c-0.3-11.5-1.9-23.2-4.6-34.5c-2.1-9.2-9.6-13.6-19.2-14.4c-18.5-1.5-37-4.1-55.6-5
				c-25.8-1.4-51.6-2.8-77.3,2c-4.8,0.9-10,0.1-15,0.1c-17.8,0-35.5,0.1-53.3,0c-22.3-0.1-44.5-0.5-66.8-0.7"/>
			<path id="XMLID_44_" class="st0" d="M202.7,39.8c-0.3-2.3-0.5-4.5-0.7-6.3c-15.8-1.4-31.6-3.1-47.3-4.1c-10-0.6-20.1,0.6-30-0.3
				c-19.7-1.6-38.7,2.7-57.8,5.6c-15.5,2.4-22.5,14.3-25.4,28.4c-2.3,11.3-3.4,23-3.8,34.5c-0.6,19.5-0.4,39-0.1,58.5
				c0.2,13.2,0.9,26.3,5.1,39.1c4.7,14.3,13.5,21.5,29.2,24.6c25.3,4.9,50.6,5.1,75.9,4.5c18-0.4,36-2.3,54.1-3.6"/>
			<path id="XMLID_43_" class="st0" d="M166.7,201.9c1.3,2.1,2.6,4.3,4,6.7c17.3-4.3,34-8.5,50.8-12.7c5.2-1.3,6.1-5.3,5.2-9.7
				c-4.9-23.3-5.9-46.9-5-70.6c0.6-15.8,2.4-31.6,4.6-47.3c0.8-6.1,0.2-9.1-6.2-10.6c-15.3-3.7-30.5-8-45.8-11.8
				c-4.6-1.2-6.8,2-7.4,6c-2.6,17.5-5.4,35-7.5,52.6c-3.6,30.6,1.1,60.7,5.9,90.8c0.3,2,1,4,1.5,6"/>
			<path id="XMLID_42_" class="st0" d="M419.6,200.4c-1.6,4.3-5.1,5.2-9,4.4c-9-1.8-18.1-3.6-27-6.1c-4.3-1.2-8-4.2-11.5-6.1
				c8.4-44.3,8.5-86.5,0.3-130.4c9.5-11.5,25.6-8.1,38.3-13.1c2.6-1,6.7,1.7,9.4,2.6c11.1,50.2,10.8,98.7,0.5,148.8
				c21.8,0,43.8,0,65.8,0"/>
			<path id="XMLID_41_" class="st0" d="M498.5,96.1c1.3,1.3,3.5,2.5,3.6,3.8c0.5,14,0.7,28,0.9,42c0,4-0.5,8-0.7,12
				c0.7,0.5,1.5,1,2.2,1.5c-1.5,1.5-3,3-4.5,4.5c-0.5-0.5-1-1-1.5-1.5c-4.9,0.2-5.3-3-5.3-6.8c0.1-14.5,0-29,0-43.5
				c0-2,0.4-4.1-0.1-6c-1.1-4.3,1.5-5.6,4.6-6.8"/>
			<path id="XMLID_40_" class="st0" d="M269.5,211c2.7,0.3,5.4,0.6,8.6,1c0-5.3,0-9.5,0-13.7c-20.5-2.7-68.7,4.1-86,12.7
				c3.8,1,6.4,2.2,9,2.2c22.5-0.3,45-0.9,67.6-1.4"/>
			<path id="XMLID_39_" class="st0" d="M165.9,201.9c-3.8,0.3-7.5,0.7-11.3,0.7c-26.3,0.1-52.5,0-78.8,0.1c-2.5,0-5,0.5-7.5,0.7"/>
			<path id="XMLID_38_" class="st0" d="M165.9,51.8c-4.5-0.3-9-0.7-13.5-0.7c-25-0.1-50,0-75.1-0.1c-2.5,0-5-0.5-7.5-0.7"/>
			<path id="XMLID_37_" class="st0" d="M66.8,202.7c-3.5-8.9-7-17.8-10.9-27.9c-1.5,0.5-3.8,1.2-6.5,2.2
				c5.5,14.1,2.9,31.9,21.2,36.4c0.8-0.5,1.5-1,2.3-1.4c-1.8-2.8-3.5-5.7-5.3-8.5"/>
			<path id="XMLID_36_" class="st0" d="M193.7,43.5c12.5,3.3,24.9,7.5,37.6,9.5c15.3,2.4,30.9,2.8,46.9,4.1c0-5.3,0-9.8,0-14.8
				c-2.4-0.1-4.4-0.2-6.4-0.3c-19.5-0.5-39-1.2-58.6-1.4c-6.5,0-13,1.4-19.5,2.1"/>
			<path id="XMLID_35_" class="st0" d="M421.9,53.3c21.5,0,43,0,64.6,0"/>
			<path id="XMLID_34_" class="st0" d="M486.5,201.2c0,1.8,0,3.5,0,6c3,0,6,0,9.5,0c2.2-6.1,4.5-12.4,6.7-18.5
				c-5.8-3.6-10.2-1.9-12.4,4.3c-0.9,2.5-2,5-3,7.5"/>
			<path id="XMLID_33_" class="st0" d="M487.2,54.1c1.9,3.8,3.8,7.6,5.8,11.5c2.9,0.8,5.6,1.6,10.2,2.9c-2.6-8.3-4.8-15.2-7-22.1
				c-3.5-0.2-6.2-0.4-9.8-0.7c0.3,3.2,0.5,5.4,0.8,7.7"/>
			<path id="XMLID_32_" class="st0" d="M201.9,214c1.5,6.3,2.6,12.6,4.6,18.7c1.7,5.2,5.7,4.6,10.3,1.9c-0.7-6.6-1.4-13.6-2.1-20.6"
				/>
			<path id="XMLID_31_" class="st0" d="M214.7,39.8c0.7-7.2,1.5-14.5,2.2-22.2c-6-0.4-10.3-1.5-10.7,5.7c-0.1,2.8-2.3,5.5-3.6,8.3"
				/>
			<path id="XMLID_30_" class="st0" d="M68.3,40.5c-11.4,4-12.8,14.5-15.7,24c-1,3.4-1.5,7-2.4,11.8c1.8,0.9,4.1,1.9,5.3,2.5
				c5.7-13.4,10.9-25.6,16.1-37.7c-0.5-0.1-1.5-0.4-2.5-0.6"/>
			<path id="XMLID_29_" class="st0" d="M296.5,42c-2.7,0.3-5.5,0.7-8.3,1c0,4,0,8.2,0,12.4c31.8,4.3,77.9-2,84-12.2
				c-25.4-0.4-50.2-0.8-75-1.2"/>
			<path id="XMLID_11_" class="st0" d="M289,197.4c-0.7,4.2-1.4,8.4-2.2,13.1c28.9,0,56.5,0,84.7,0c0.3-4.7-3-5.8-6-6.3
				c-11.5-2.2-22.9-4.9-34.5-5.9c-13.7-1.2-27.5-0.7-41.3-1"/>
			<path id="XMLID_10_" class="st0" d="M48,84.8c-6.9,4.3-4,11.7-4.2,17.3c-0.7,19.5,0,39,0.5,58.5c0.1,3,1.7,5.9,2.7,8.9
				c1,0,1.9,0,2.9,0c1.1-2.2,3.2-4.4,3.2-6.6c0-20-0.4-40-0.6-60.1c0-3.5,0.5-7,0.7-10.5c0.2-3.5,0.1-6.9-4.5-7.5"/>
		</g>
	</g>
</g>
<g id="Layer_2">
	<circle id="XMLID_51_" class="st1" cx="237" cy="42" r="6"/>
	<circle id="XMLID_57_" class="st1" cx="186" cy="86" r="6"/>
	<circle id="XMLID_58_" class="st1" cx="186" cy="163" r="6"/>
	<circle id="XMLID_53_" class="st1" cx="237" cy="214" r="6"/>
	<circle id="XMLID_54_" class="st1" cx="64" cy="123" r="6"/>
	<circle id="XMLID_55_" class="st1" cx="500" cy="86" r="6"/>
	<circle id="XMLID_56_" class="st1" cx="500" cy="169" r="6"/>
</g>
<g id="Layer_3">
	<rect id="XMLID_52_" x="139" y="159.5" class="st1" width="7" height="7"/>
	<rect id="XMLID_60_" x="467" y="143" class="st1" width="7" height="7"/>
	<rect id="XMLID_61_" x="146" y="136" class="st1" width="7" height="7"/>
	<rect id="XMLID_62_" x="102" y="139.5" class="st1" width="7" height="7"/>
	<rect id="XMLID_63_" x="102" y="92" class="st1" width="7" height="7"/>
	<rect id="XMLID_64_" x="60.5" y="92" class="st1" width="7" height="7"/>
	<rect id="XMLID_65_" x="166" y="92" class="st1" width="7" height="7"/>
	<rect id="XMLID_69_" x="142.5" y="67" class="st1" width="7" height="7"/>
	<rect id="XMLID_66_" x="166" y="153.5" class="st1" width="7" height="7"/>
	<rect id="XMLID_67_" x="200" y="122.5" class="st1" width="7" height="7"/>
	<rect id="XMLID_68_" x="397" y="146" class="st1" width="7" height="7"/>
</g>
</svg>
